<svg xmlns="http://www.w3.org/2000/svg" width="86.55" height="86.549" viewBox="0 0 86.55 86.549">
  <g id="组_21410" data-name="组 21410" transform="translate(0 0)">
    <path id="路径_874" data-name="路径 874" d="M245.352,257.72a9.465,9.465,0,0,0-4.45-4.45l-.524-.25v-8.035h-1.1v7.633l-1.059-.16a9.39,9.39,0,0,0-1.343-.108h-3.859v-7.366h-1.1v7.366h-6.261v-7.366h-1.106v7.366H218.28v-7.366h-1.1v7.366h-6.261v-7.366h-1.1v7.366h-6.261v-7.366h-1.1v7.366h-6.261v-7.366h-1.1v7.366h-6.261v-7.366h-1.1v7.366h-3.867a9.471,9.471,0,0,0-1.335.107l-1.059.161v-7.633h-1.1v8.035l-.524.25a9.471,9.471,0,0,0-4.45,4.45l-.25.524h-8.035v1.1h7.635l-.162,1.059a9.562,9.562,0,0,0-.108,1.344v3.858h-7.366v1.1h7.366v6.261h-7.366v1.1h7.366v6.261h-7.366v1.1h7.366v6.261h-7.366v1.1h7.366v6.261h-7.366v1.1h7.366v6.261h-7.366v1.1h7.366V309.8h-7.366v1.1h7.366v3.867a9.552,9.552,0,0,0,.108,1.335l.162,1.059h-7.635v1.1h8.035l.25.524a9.478,9.478,0,0,0,4.45,4.45l.524.25v8.035h1.1V323.9l1.059.161a9.677,9.677,0,0,0,1.344.108h3.858v7.366h1.1v-7.366h6.261v7.366h1.1v-7.366h6.261v7.366h1.1v-7.366h6.261v7.366h1.1v-7.366h6.261v7.366h1.1v-7.366h6.261v7.366h1.106v-7.366h6.261v7.366h1.1v-7.366h3.867a9.667,9.667,0,0,0,1.335-.108l1.059-.161v7.634h1.1V323.5l.524-.25a9.471,9.471,0,0,0,4.45-4.45l.25-.524h8.035v-1.1H246l.162-1.06a9.563,9.563,0,0,0,.108-1.344V310.91h7.366v-1.1h-7.366v-6.261h7.366v-1.1h-7.366v-6.261h7.366v-1.1h-7.366v-6.261h7.366v-1.1h-7.366v-6.261h7.366v-1.1h-7.366V274.08h7.366v-1.1h-7.366v-6.261h7.366v-1.1h-7.366v-3.867a9.534,9.534,0,0,0-.108-1.334l-.162-1.06h7.635v-1.1H245.6Zm-.186,57.058a8.31,8.31,0,0,1-8.285,8.285H183.844a8.311,8.311,0,0,1-8.287-8.285V261.742a8.311,8.311,0,0,1,8.286-8.287h53.036a8.31,8.31,0,0,1,8.287,8.285Z" transform="translate(-167.087 -244.985)" fill="#6287de"/>
    <path id="路径_875" data-name="路径 875" d="M240.674,264.985H190.586a3.5,3.5,0,0,0-3.5,3.5v50.088a3.5,3.5,0,0,0,3.5,3.5h50.089a3.5,3.5,0,0,0,3.5-3.5V268.484A3.5,3.5,0,0,0,240.674,264.985Zm2.394,53.587a2.4,2.4,0,0,1-2.394,2.394H190.586a2.4,2.4,0,0,1-2.394-2.394V268.484a2.4,2.4,0,0,1,2.394-2.394h50.089a2.4,2.4,0,0,1,2.394,2.394Z" transform="translate(-172.355 -250.253)" fill="#6287de"/>
    <rect id="矩形_44" data-name="矩形 44" width="1.105" height="1.105" transform="translate(64.82 20.624)" fill="#6287de"/>
    <rect id="矩形_45" data-name="矩形 45" width="1.105" height="1.105" transform="translate(20.625 64.82)" fill="#6287de"/>
    <path id="路径_876" data-name="路径 876" d="M196.192,274.09h4.42v-1.1h-3.5a2.028,2.028,0,0,0-2.026,2.026v3.5h1.1Z" transform="translate(-174.463 -252.361)" fill="#6287de"/>
    <path id="路径_877" data-name="路径 877" d="M254.612,326.985h-1.1v4.42h-4.42v1.1h5.524Z" transform="translate(-188.687 -266.585)" fill="#6287de"/>
  </g>
</svg>
